<svg width="411" height="413" viewBox="0 0 411 413" fill="none" xmlns="http://www.w3.org/2000/svg">
<path fill-rule="evenodd" clip-rule="evenodd" d="M10.0643 63.6206L101.258 10.8154L113.506 17.9343L10.0865 77.5636L10.0643 63.6206ZM10.1049 89.0961L123.476 23.7289L134.073 29.888L10.1233 100.62L10.1049 89.0961ZM10.1417 112.123L144.069 35.6976L154.89 41.9866L10.1629 125.443L10.1417 112.123ZM10.1813 136.976L164.859 47.7811L174.641 53.4664L10.2005 148.981L10.1813 136.976ZM10.2189 160.535L184.593 59.2505L189.617 62.1706L189.614 70.4507L16.2343 170.867L10.2298 167.377L10.2189 160.535ZM26.1933 176.655L189.61 82.0092L189.605 95.6185L37.9192 183.47L26.1933 176.655ZM47.8782 189.258L189.601 107.177L189.597 118.469L57.6076 194.913L47.8782 189.258ZM67.5665 200.701L189.593 130.028L189.589 141.636L77.5682 206.514L67.5665 200.701ZM87.5272 212.303L189.584 153.194L189.579 167.431L99.4332 219.222L87.5272 212.303ZM104.276 1.00356C102.415 -0.0780764 100.117 -0.0799347 98.2547 0.998692L3.05397 56.1244C1.1983 57.1989 0.0571633 59.1821 0.0605851 61.3263L0.233512 169.69C0.236917 171.824 1.37341 173.796 3.21857 174.868L96.4066 229.03C98.2613 230.108 100.55 230.114 102.411 229.045L196.567 174.949C198.429 173.88 199.578 171.896 199.578 169.749L199.618 59.8716C199.619 57.7335 198.482 55.7564 196.633 54.6819L104.276 1.00356ZM221.064 63.6206L312.258 10.8154L400.617 62.1706L400.579 167.431L310.433 219.222L221.23 167.377L221.064 63.6206ZM315.276 1.00356C313.415 -0.0780764 311.117 -0.0799347 309.255 0.998692L214.054 56.1244C212.198 57.199 211.057 59.1822 211.061 61.3263L211.234 169.69C211.237 171.824 212.373 173.796 214.219 174.868L307.407 229.03C309.261 230.108 311.55 230.114 313.411 229.045L407.567 174.949C409.429 173.88 410.578 171.896 410.578 169.749L410.618 59.8716C410.619 57.7335 409.482 55.7564 407.633 54.6819L315.276 1.00356ZM293.617 245.171L205.258 193.815L114.064 246.621L114.23 350.377L203.433 402.222L293.579 350.431L293.617 245.171ZM208.276 184.004C206.415 182.922 204.117 182.92 202.255 183.999L107.054 239.124C105.198 240.199 104.057 242.182 104.061 244.326L104.234 352.69C104.237 354.824 105.373 356.796 107.219 357.868L200.407 412.03C202.261 413.108 204.55 413.114 206.411 412.045L203.92 407.709L206.411 412.045L300.567 357.949C302.429 356.88 303.578 354.896 303.578 352.749L303.618 242.872C303.619 240.734 302.482 238.756 300.633 237.682L208.276 184.004ZM311.5 48C275.854 48 247 79.9464 247 119.429V132.821C247 134.48 247.417 136.105 248.204 137.515C248.991 138.926 250.118 140.066 251.457 140.807L255.081 142.814C255.587 159.58 268.018 173 283.281 173H289.328C292.668 173 295.375 170.002 295.375 166.304V117.196C295.375 113.498 292.668 110.5 289.328 110.5H283.281C275.385 110.5 268.247 114.093 263.125 119.883V119.429C263.125 89.8892 284.826 65.8571 311.5 65.8571C338.174 65.8571 359.875 89.8892 359.875 119.429V119.883C354.753 114.093 347.615 110.5 339.719 110.5H333.672C330.332 110.5 327.625 113.498 327.625 117.196V166.304C327.625 170.002 330.332 173 333.672 173H339.719C354.982 173 367.413 159.58 367.919 142.814L371.543 140.807C372.882 140.066 374.009 138.926 374.796 137.516C375.583 136.105 376 134.48 376 132.821V119.429C376 79.9534 347.152 48 311.5 48ZM205 241C206.367 241 207.678 241.515 208.644 242.431C209.611 243.347 210.154 244.59 210.154 245.885V353.365C210.154 354.66 209.611 355.903 208.644 356.819C207.678 357.735 206.367 358.25 205 358.25C203.633 358.25 202.322 357.735 201.356 356.819C200.389 355.903 199.846 354.66 199.846 353.365V245.885C199.846 244.59 200.389 243.347 201.356 242.431C202.322 241.515 203.633 241 205 241ZM184.385 260.542C185.752 260.542 187.062 261.056 188.029 261.973C188.995 262.889 189.538 264.131 189.538 265.427V333.823C189.538 335.119 188.995 336.361 188.029 337.277C187.062 338.194 185.752 338.708 184.385 338.708C183.018 338.708 181.707 338.194 180.74 337.277C179.774 336.361 179.231 335.119 179.231 333.823V265.427C179.231 264.131 179.774 262.889 180.74 261.973C181.707 261.056 183.018 260.542 184.385 260.542ZM225.615 260.542C226.982 260.542 228.293 261.056 229.26 261.973C230.226 262.889 230.769 264.131 230.769 265.427V333.823C230.769 335.119 230.226 336.361 229.26 337.277C228.293 338.194 226.982 338.708 225.615 338.708C224.249 338.708 222.938 338.194 221.971 337.277C221.005 336.361 220.462 335.119 220.462 333.823V265.427C220.462 264.131 221.005 262.889 221.971 261.973C222.938 261.056 224.249 260.542 225.615 260.542ZM163.769 275.198C165.136 275.198 166.447 275.713 167.414 276.629C168.38 277.545 168.923 278.788 168.923 280.083V319.167C168.923 320.462 168.38 321.705 167.414 322.621C166.447 323.537 165.136 324.052 163.769 324.052C162.402 324.052 161.091 323.537 160.125 322.621C159.158 321.705 158.615 320.462 158.615 319.167V280.083C158.615 278.788 159.158 277.545 160.125 276.629C161.091 275.713 162.402 275.198 163.769 275.198ZM246.231 275.198C247.598 275.198 248.909 275.713 249.875 276.629C250.842 277.545 251.385 278.788 251.385 280.083V319.167C251.385 320.462 250.842 321.705 249.875 322.621C248.909 323.537 247.598 324.052 246.231 324.052C244.864 324.052 243.553 323.537 242.586 322.621C241.62 321.705 241.077 320.462 241.077 319.167V280.083C241.077 278.788 241.62 277.545 242.586 276.629C243.553 275.713 244.864 275.198 246.231 275.198ZM143.154 284.969C144.521 284.969 145.832 285.483 146.798 286.4C147.765 287.316 148.308 288.558 148.308 289.854V309.396C148.308 310.692 147.765 311.934 146.798 312.85C145.832 313.767 144.521 314.281 143.154 314.281C141.787 314.281 140.476 313.767 139.51 312.85C138.543 311.934 138 310.692 138 309.396V289.854C138 288.558 138.543 287.316 139.51 286.4C140.476 285.483 141.787 284.969 143.154 284.969ZM266.846 284.969C268.213 284.969 269.524 285.483 270.491 286.4C271.457 287.316 272 288.558 272 289.854V309.396C272 310.692 271.457 311.934 270.491 312.85C269.524 313.767 268.213 314.281 266.846 314.281C265.479 314.281 264.168 313.767 263.202 312.85C262.235 311.934 261.692 310.692 261.692 309.396V289.854C261.692 288.558 262.235 287.316 263.202 286.4C264.168 285.483 265.479 284.969 266.846 284.969Z" fill="black"/>
</svg>
