<svg width="411" height="413" viewBox="0 0 411 413" fill="none" xmlns="http://www.w3.org/2000/svg">
<path fill-rule="evenodd" clip-rule="evenodd" d="M10.0037 63.4296L101.197 10.6244L113.446 17.7433L10.0259 77.3726L10.0037 63.4296ZM10.0443 88.9051L123.416 23.5379L134.013 29.697L10.0627 100.429L10.0443 88.9051ZM10.0811 111.932L144.008 35.5066L154.829 41.7956L10.1023 125.252L10.0811 111.932ZM10.1207 136.785L164.799 47.5901L174.581 53.2754L10.1399 148.79L10.1207 136.785ZM10.1583 160.344L184.533 59.0594L189.557 61.9796L189.554 70.2597L16.1737 170.676L10.1693 167.186L10.1583 160.344ZM26.1327 176.464L189.55 81.8182L189.545 95.4275L37.8586 183.279L26.1327 176.464ZM47.8176 189.067L189.541 106.986L189.536 118.278L57.547 194.722L47.8176 189.067ZM67.5059 200.51L189.532 129.837L189.528 141.445L77.5076 206.323L67.5059 200.51ZM87.4666 212.112L189.524 153.003L189.519 167.24L99.3726 219.031L87.4666 212.112ZM104.216 0.81253C102.355 -0.269101 100.057 -0.270959 98.1941 0.807667L2.99339 55.9334C1.13772 57.0079 -0.00341411 58.9911 7.6738e-06 61.1353L0.172935 169.499C0.17634 171.633 1.31283 173.605 3.15799 174.677L96.3461 228.839C98.2007 229.917 100.49 229.922 102.35 228.854L196.507 174.758C198.369 173.689 199.517 171.705 199.518 169.558L199.558 59.6806C199.558 57.5425 198.421 55.5654 196.573 54.4909L104.216 0.81253ZM221.004 63.4296L312.197 10.6244L400.557 61.9796L400.519 167.24L310.373 219.031L221.169 167.186L221.004 63.4296ZM315.216 0.81253C313.355 -0.269101 311.057 -0.270959 309.194 0.807667L213.993 55.9334C212.138 57.008 210.997 58.9912 211 61.1353L211.173 169.499C211.176 171.633 212.313 173.605 214.158 174.677L307.346 228.839C309.201 229.917 311.49 229.922 313.35 228.854L407.507 174.758C409.369 173.689 410.517 171.705 410.518 169.558L410.558 59.6806C410.558 57.5425 409.421 55.5654 407.573 54.4909L315.216 0.81253ZM293.557 244.98L205.197 193.624L114.004 246.43L114.169 350.186L203.373 402.031L293.519 350.24L293.557 244.98ZM208.216 183.813C206.355 182.731 204.057 182.729 202.194 183.808L106.993 238.933C105.138 240.008 103.997 241.991 104 244.135L104.173 352.499C104.176 354.633 105.313 356.605 107.158 357.677L200.346 411.839C202.201 412.917 204.49 412.923 206.35 411.854L203.859 407.518L206.35 411.854L300.507 357.758C302.369 356.689 303.517 354.705 303.518 352.558L303.558 242.681C303.558 240.543 302.421 238.565 300.573 237.491L208.216 183.813ZM311.439 47.809C275.793 47.809 246.939 79.7554 246.939 119.238V132.63C246.939 134.289 247.356 135.914 248.144 137.324C248.931 138.735 250.057 139.875 251.396 140.616L255.02 142.623C255.527 159.389 267.958 172.809 283.221 172.809H289.268C292.607 172.809 295.314 169.811 295.314 166.113V117.005C295.314 113.307 292.607 110.309 289.268 110.309H283.221C275.324 110.309 268.186 113.902 263.064 119.692V119.238C263.064 89.6982 284.765 65.6661 311.439 65.6661C338.113 65.6661 359.814 89.6982 359.814 119.238V119.692C354.692 113.902 347.555 110.309 339.658 110.309H333.611C330.272 110.309 327.564 113.307 327.564 117.005V166.113C327.564 169.811 330.272 172.809 333.611 172.809H339.658C354.921 172.809 367.352 159.389 367.859 142.623L371.482 140.616C372.822 139.875 373.948 138.735 374.735 137.325C375.522 135.914 375.939 134.289 375.939 132.63V119.238C375.939 79.7624 347.092 47.809 311.439 47.809ZM204.939 240.809C206.306 240.809 207.617 241.324 208.584 242.24C209.55 243.156 210.093 244.399 210.093 245.694V353.174C210.093 354.469 209.55 355.712 208.584 356.628C207.617 357.544 206.306 358.059 204.939 358.059C203.573 358.059 202.262 357.544 201.295 356.628C200.329 355.712 199.786 354.469 199.786 353.174V245.694C199.786 244.399 200.329 243.156 201.295 242.24C202.262 241.324 203.573 240.809 204.939 240.809ZM184.324 260.351C185.691 260.351 187.002 260.865 187.968 261.782C188.935 262.698 189.478 263.94 189.478 265.236V333.632C189.478 334.928 188.935 336.17 187.968 337.086C187.002 338.003 185.691 338.517 184.324 338.517C182.957 338.517 181.646 338.003 180.68 337.086C179.713 336.17 179.17 334.928 179.17 333.632V265.236C179.17 263.94 179.713 262.698 180.68 261.782C181.646 260.865 182.957 260.351 184.324 260.351ZM225.555 260.351C226.922 260.351 228.233 260.865 229.199 261.782C230.166 262.698 230.709 263.94 230.709 265.236V333.632C230.709 334.928 230.166 336.17 229.199 337.086C228.233 338.003 226.922 338.517 225.555 338.517C224.188 338.517 222.877 338.003 221.91 337.086C220.944 336.17 220.401 334.928 220.401 333.632V265.236C220.401 263.94 220.944 262.698 221.91 261.782C222.877 260.865 224.188 260.351 225.555 260.351ZM163.709 275.007C165.076 275.007 166.386 275.522 167.353 276.438C168.32 277.354 168.863 278.597 168.863 279.892V318.976C168.863 320.271 168.32 321.514 167.353 322.43C166.386 323.346 165.076 323.861 163.709 323.861C162.342 323.861 161.031 323.346 160.064 322.43C159.098 321.514 158.555 320.271 158.555 318.976V279.892C158.555 278.597 159.098 277.354 160.064 276.438C161.031 275.522 162.342 275.007 163.709 275.007ZM246.17 275.007C247.537 275.007 248.848 275.522 249.815 276.438C250.781 277.354 251.324 278.597 251.324 279.892V318.976C251.324 320.271 250.781 321.514 249.815 322.43C248.848 323.346 247.537 323.861 246.17 323.861C244.803 323.861 243.492 323.346 242.526 322.43C241.559 321.514 241.016 320.271 241.016 318.976V279.892C241.016 278.597 241.559 277.354 242.526 276.438C243.492 275.522 244.803 275.007 246.17 275.007ZM143.093 284.778C144.46 284.778 145.771 285.292 146.738 286.209C147.704 287.125 148.247 288.367 148.247 289.663V309.205C148.247 310.5 147.704 311.743 146.738 312.659C145.771 313.576 144.46 314.09 143.093 314.09C141.726 314.09 140.415 313.576 139.449 312.659C138.482 311.743 137.939 310.5 137.939 309.205V289.663C137.939 288.367 138.482 287.125 139.449 286.209C140.415 285.292 141.726 284.778 143.093 284.778ZM266.786 284.778C268.152 284.778 269.463 285.292 270.43 286.209C271.396 287.125 271.939 288.367 271.939 289.663V309.205C271.939 310.5 271.396 311.743 270.43 312.659C269.463 313.576 268.152 314.09 266.786 314.09C265.419 314.09 264.108 313.576 263.141 312.659C262.175 311.743 261.632 310.5 261.632 309.205V289.663C261.632 288.367 262.175 287.125 263.141 286.209C264.108 285.292 265.419 284.778 266.786 284.778Z" fill="white"/>
</svg>
