<svg width="1751" height="413" viewBox="0 0 1751 413" fill="none" xmlns="http://www.w3.org/2000/svg">
<path fill-rule="evenodd" clip-rule="evenodd" d="M104.216 0.81253C102.355 -0.269101 100.057 -0.270959 98.1941 0.807667L2.99339 55.9334C1.13772 57.0079 -0.00341411 58.9911 7.6738e-06 61.1353L0.172935 169.499C0.17634 171.633 1.31283 173.605 3.15799 174.677L96.3461 228.839C98.2007 229.917 100.49 229.923 102.35 228.854L196.507 174.758C198.369 173.689 199.517 171.705 199.518 169.558L199.558 59.6806C199.559 57.5425 198.421 55.5654 196.573 54.4909L104.216 0.81253ZM10.0037 63.4296L101.197 10.6244L113.446 17.7433L10.0259 77.3726L10.0037 63.4296ZM10.0443 88.9051L123.416 23.5379L134.013 29.697L10.0627 100.429L10.0443 88.9051ZM10.0811 111.932L144.008 35.5066L154.829 41.7956L10.1023 125.252L10.0811 111.932ZM10.1207 136.785L164.799 47.5901L174.581 53.2754L10.1399 148.79L10.1207 136.785ZM10.1583 160.344L184.533 59.0594L189.557 61.9796L189.554 70.2597L16.1737 170.676L10.1693 167.186L10.1583 160.344ZM26.1327 176.464L189.55 81.8182L189.545 95.4275L37.8586 183.279L26.1327 176.464ZM47.8176 189.067L189.541 106.986L189.536 118.278L57.547 194.722L47.8176 189.067ZM67.506 200.51L189.532 129.837L189.528 141.445L77.5076 206.323L67.506 200.51ZM87.4666 212.112L189.524 153.003L189.519 167.24L99.3726 219.031L87.4666 212.112Z" fill="black"/>
<path d="M311.439 47.809C275.793 47.809 246.939 79.7554 246.939 119.238V132.63C246.939 134.289 247.356 135.914 248.144 137.324C248.931 138.735 250.057 139.875 251.396 140.616L255.02 142.623C255.527 159.389 267.958 172.809 283.221 172.809H289.268C292.607 172.809 295.314 169.811 295.314 166.113V117.005C295.314 113.307 292.607 110.309 289.268 110.309H283.221C275.324 110.309 268.186 113.902 263.064 119.692V119.238C263.064 89.6982 284.765 65.6661 311.439 65.6661C338.113 65.6661 359.814 89.6982 359.814 119.238V119.692C354.692 113.902 347.555 110.309 339.658 110.309H333.611C330.272 110.309 327.564 113.307 327.564 117.005V166.113C327.564 169.811 330.272 172.809 333.611 172.809H339.658C354.921 172.809 367.352 159.389 367.859 142.623L371.482 140.616C372.822 139.875 373.948 138.735 374.735 137.325C375.522 135.914 375.939 134.289 375.939 132.63V119.238C375.939 79.7624 347.092 47.809 311.439 47.809Z" fill="black"/>
<path fill-rule="evenodd" clip-rule="evenodd" d="M315.216 0.81253C313.355 -0.269101 311.057 -0.270959 309.194 0.807667L213.993 55.9334C212.138 57.008 210.997 58.9912 211 61.1353L211.173 169.499C211.176 171.633 212.313 173.605 214.158 174.677L307.346 228.839C309.201 229.917 311.49 229.923 313.35 228.854L407.507 174.758C409.369 173.689 410.517 171.705 410.518 169.558L410.558 59.6806C410.558 57.5425 409.421 55.5654 407.573 54.4909L315.216 0.81253ZM221.004 63.4296L312.197 10.6244L400.557 61.9796L400.519 167.24L310.373 219.031L221.169 167.186L221.004 63.4296Z" fill="black"/>
<path d="M204.939 240.809C206.306 240.809 207.617 241.324 208.584 242.24C209.55 243.156 210.093 244.399 210.093 245.694V353.174C210.093 354.469 209.55 355.712 208.584 356.628C207.617 357.544 206.306 358.059 204.939 358.059C203.573 358.059 202.262 357.544 201.295 356.628C200.329 355.712 199.786 354.469 199.786 353.174V245.694C199.786 244.399 200.329 243.156 201.295 242.24C202.262 241.324 203.573 240.809 204.939 240.809Z" fill="black"/>
<path d="M184.324 260.351C185.691 260.351 187.002 260.865 187.968 261.782C188.935 262.698 189.478 263.94 189.478 265.236V333.632C189.478 334.928 188.935 336.17 187.968 337.086C187.002 338.003 185.691 338.517 184.324 338.517C182.957 338.517 181.646 338.003 180.68 337.086C179.713 336.17 179.17 334.928 179.17 333.632V265.236C179.17 263.94 179.713 262.698 180.68 261.782C181.646 260.865 182.957 260.351 184.324 260.351Z" fill="black"/>
<path d="M225.555 260.351C226.922 260.351 228.233 260.865 229.199 261.782C230.166 262.698 230.709 263.94 230.709 265.236V333.632C230.709 334.928 230.166 336.17 229.199 337.086C228.233 338.003 226.922 338.517 225.555 338.517C224.188 338.517 222.877 338.003 221.91 337.086C220.944 336.17 220.401 334.928 220.401 333.632V265.236C220.401 263.94 220.944 262.698 221.91 261.782C222.877 260.865 224.188 260.351 225.555 260.351Z" fill="black"/>
<path d="M163.709 275.007C165.076 275.007 166.386 275.522 167.353 276.438C168.32 277.354 168.863 278.597 168.863 279.892V318.976C168.863 320.271 168.32 321.514 167.353 322.43C166.386 323.346 165.076 323.861 163.709 323.861C162.342 323.861 161.031 323.346 160.064 322.43C159.098 321.514 158.555 320.271 158.555 318.976V279.892C158.555 278.597 159.098 277.354 160.064 276.438C161.031 275.522 162.342 275.007 163.709 275.007Z" fill="black"/>
<path d="M246.17 275.007C247.537 275.007 248.848 275.522 249.815 276.438C250.781 277.354 251.324 278.597 251.324 279.892V318.976C251.324 320.271 250.781 321.514 249.815 322.43C248.848 323.346 247.537 323.861 246.17 323.861C244.803 323.861 243.492 323.346 242.526 322.43C241.559 321.514 241.016 320.271 241.016 318.976V279.892C241.016 278.597 241.559 277.354 242.526 276.438C243.492 275.522 244.803 275.007 246.17 275.007Z" fill="black"/>
<path d="M143.093 284.778C144.46 284.778 145.771 285.292 146.738 286.209C147.704 287.125 148.247 288.367 148.247 289.663V309.205C148.247 310.5 147.704 311.743 146.738 312.659C145.771 313.576 144.46 314.09 143.093 314.09C141.726 314.09 140.415 313.576 139.449 312.659C138.482 311.743 137.939 310.5 137.939 309.205V289.663C137.939 288.367 138.482 287.125 139.449 286.209C140.415 285.292 141.726 284.778 143.093 284.778Z" fill="black"/>
<path d="M266.786 284.778C268.152 284.778 269.463 285.292 270.43 286.209C271.396 287.125 271.939 288.367 271.939 289.663V309.205C271.939 310.5 271.396 311.743 270.43 312.659C269.463 313.576 268.152 314.09 266.786 314.09C265.419 314.09 264.108 313.576 263.141 312.659C262.175 311.743 261.632 310.5 261.632 309.205V289.663C261.632 288.367 262.175 287.125 263.141 286.209C264.108 285.292 265.419 284.778 266.786 284.778Z" fill="black"/>
<path fill-rule="evenodd" clip-rule="evenodd" d="M208.216 183.813C206.355 182.731 204.057 182.729 202.194 183.808L106.993 238.933C105.138 240.008 103.997 241.991 104 244.135L104.173 352.499C104.176 354.633 105.313 356.605 107.158 357.677L200.346 411.839C202.201 412.917 204.49 412.923 206.35 411.854L300.507 357.758C302.369 356.689 303.517 354.705 303.518 352.558L303.558 242.681C303.558 240.543 302.421 238.565 300.573 237.491L208.216 183.813ZM293.557 244.98L205.197 193.624L114.004 246.43L114.169 350.186L203.373 402.031L293.519 350.24L293.557 244.98Z" fill="black"/>
<path d="M547.24 179.639C547.24 173.294 548.452 167.341 550.875 161.781C553.299 156.22 556.579 151.373 560.713 147.238C564.919 143.032 569.803 139.717 575.363 137.293C580.924 134.869 586.876 133.657 593.221 133.657H663.583V164.347H593.221C591.083 164.347 589.086 164.739 587.233 165.523C585.379 166.308 583.74 167.413 582.314 168.838C580.959 170.193 579.89 171.797 579.106 173.65C578.322 175.504 577.93 177.5 577.93 179.639C577.93 181.777 578.322 183.809 579.106 185.734C579.89 187.587 580.959 189.227 582.314 190.653C583.74 192.007 585.379 193.077 587.233 193.861C589.086 194.645 591.083 195.037 593.221 195.037H623.911C630.256 195.037 636.208 196.249 641.769 198.673C647.401 201.025 652.284 204.305 656.419 208.511C660.625 212.646 663.904 217.529 666.257 223.161C668.681 228.721 669.893 234.674 669.893 241.019C669.893 247.363 668.681 253.316 666.257 258.876C663.904 264.437 660.625 269.32 656.419 273.526C652.284 277.661 647.401 280.94 641.769 283.364C636.208 285.788 630.256 287 623.911 287H555.794V256.31H623.911C626.05 256.31 628.046 255.918 629.899 255.134C631.753 254.35 633.357 253.28 634.711 251.926C636.137 250.5 637.242 248.86 638.026 247.007C638.811 245.153 639.203 243.157 639.203 241.019C639.203 238.88 638.811 236.884 638.026 235.03C637.242 233.177 636.137 231.573 634.711 230.218C633.357 228.792 631.753 227.688 629.899 226.903C628.046 226.119 626.05 225.727 623.911 225.727H593.221C586.876 225.727 580.924 224.515 575.363 222.091C569.803 219.667 564.919 216.388 560.713 212.253C556.579 208.047 553.299 203.164 550.875 197.604C548.452 191.972 547.24 185.983 547.24 179.639Z" fill="black"/>
<path d="M840.345 210.97C840.345 218.242 839.382 225.264 837.458 232.036C835.604 238.737 832.966 245.046 829.544 250.963C826.123 256.809 821.988 262.156 817.14 267.003C812.292 271.851 806.946 276.021 801.1 279.515C795.254 282.937 788.945 285.574 782.173 287.428C775.4 289.353 768.378 290.315 761.107 290.315C753.835 290.315 746.813 289.353 740.041 287.428C733.34 285.574 727.031 282.937 721.114 279.515C715.268 276.021 709.921 271.851 705.074 267.003C700.226 262.156 696.056 256.809 692.562 250.963C689.141 245.046 686.467 238.737 684.542 232.036C682.689 225.264 681.762 218.242 681.762 210.97C681.762 203.699 682.689 196.677 684.542 189.904C686.467 183.132 689.141 176.823 692.562 170.977C696.056 165.131 700.226 159.785 705.074 154.937C709.921 150.089 715.268 145.955 721.114 142.533C727.031 139.111 733.34 136.473 740.041 134.62C746.813 132.695 753.835 131.732 761.107 131.732C768.378 131.732 775.4 132.695 782.173 134.62C788.945 136.473 795.254 139.111 801.1 142.533C806.946 145.955 812.292 150.089 817.14 154.937C821.988 159.785 826.123 165.131 829.544 170.977C832.966 176.823 835.604 183.132 837.458 189.904C839.382 196.677 840.345 203.699 840.345 210.97ZM809.869 210.97C809.869 204.269 808.585 197.96 806.019 192.043C803.453 186.055 799.959 180.886 795.54 176.538C791.191 172.118 786.022 168.625 780.034 166.058C774.117 163.492 767.808 162.208 761.107 162.208C754.334 162.208 747.99 163.492 742.073 166.058C736.156 168.625 730.987 172.118 726.567 176.538C722.147 180.886 718.654 186.055 716.088 192.043C713.521 197.96 712.238 204.269 712.238 210.97C712.238 217.671 713.521 223.98 716.088 229.897C718.654 235.743 722.147 240.876 726.567 245.296C730.987 249.716 736.156 253.209 742.073 255.775C747.99 258.342 754.334 259.625 761.107 259.625C767.808 259.625 774.117 258.342 780.034 255.775C786.022 253.209 791.191 249.716 795.54 245.296C799.959 240.876 803.453 235.743 806.019 229.897C808.585 223.98 809.869 217.671 809.869 210.97Z" fill="black"/>
<path d="M981.497 225.727C981.497 234.21 979.893 242.195 976.685 249.68C973.477 257.094 969.093 263.582 963.532 269.142C957.972 274.631 951.449 278.98 943.963 282.188C936.549 285.396 928.601 287 920.117 287C911.634 287 903.649 285.396 896.164 282.188C888.75 278.98 882.263 274.631 876.702 269.142C871.213 263.582 866.864 257.094 863.656 249.68C860.448 242.195 858.844 234.21 858.844 225.727V133.657H889.427V225.727C889.427 229.933 890.211 233.89 891.78 237.597C893.419 241.304 895.629 244.547 898.41 247.328C901.19 250.108 904.434 252.318 908.141 253.958C911.919 255.526 915.911 256.31 920.117 256.31C924.323 256.31 928.28 255.526 931.987 253.958C935.765 252.318 939.044 250.108 941.825 247.328C944.605 244.547 946.779 241.304 948.348 237.597C949.987 233.89 950.807 229.933 950.807 225.727V133.657H981.497V225.727Z" fill="black"/>
<path d="M1130.78 287H1097.95L1038.81 186.055V287H1008.12V133.657H1040.95L1100.09 234.709V133.657H1130.78V287Z" fill="black"/>
<path d="M1282.19 210.329C1282.19 217.386 1281.27 224.194 1279.41 230.753C1277.63 237.24 1275.07 243.335 1271.71 249.039C1268.36 254.67 1264.37 259.839 1259.74 264.544C1255.1 269.178 1249.94 273.17 1244.23 276.521C1238.53 279.871 1232.4 282.473 1225.84 284.327C1219.35 286.109 1212.58 287 1205.52 287H1159.33V133.657H1205.52C1212.58 133.657 1219.35 134.584 1225.84 136.438C1232.4 138.22 1238.53 140.786 1244.23 144.137C1249.94 147.487 1255.1 151.515 1259.74 156.22C1264.37 160.854 1268.36 166.022 1271.71 171.726C1275.07 177.357 1277.63 183.453 1279.41 190.011C1281.27 196.499 1282.19 203.271 1282.19 210.329ZM1251.5 210.329C1251.5 203.984 1250.29 198.031 1247.87 192.471C1245.52 186.91 1242.24 182.062 1238.03 177.928C1233.9 173.722 1229.01 170.407 1223.38 167.983C1217.82 165.559 1211.87 164.347 1205.52 164.347H1190.23V256.31H1205.52C1211.87 256.31 1217.82 255.134 1223.38 252.781C1229.01 250.357 1233.9 247.078 1238.03 242.943C1242.24 238.737 1245.52 233.854 1247.87 228.293C1250.29 222.662 1251.5 216.673 1251.5 210.329Z" fill="black"/>
<path d="M1333.31 287H1302.62V133.657H1333.31V195.037H1394.58V133.657H1425.27V287H1394.58V225.727H1333.31V287Z" fill="black"/>
<path d="M1484.51 287H1453.82V133.657H1484.51V287Z" fill="black"/>
<path d="M1630.26 133.657L1579.9 287H1549.21L1499.06 133.657H1533.92L1564.5 235.993L1595.19 133.657H1630.26Z" fill="black"/>
<path d="M1750.14 287H1645.02V133.657H1750.14V164.347H1675.71V195.037H1726.08V225.727H1675.71V256.31H1750.14V287Z" fill="black"/>
</svg>
